<?xml version="1.0" encoding="UTF-8"?>
<svg width="22px" height="22px" viewBox="0 0 22 22" version="1.1" xmlns="http://www.w3.org/2000/svg" xmlns:xlink="http://www.w3.org/1999/xlink">
    <title>负面事件备份</title>
    <g id="页面-1" stroke="none" stroke-width="1" fill="none" fill-rule="evenodd">
        <g id="3.2风险图谱" transform="translate(-378.000000, -559.000000)" fill-rule="nonzero">
            <g id="编组-8" transform="translate(378.000000, 224.000000)">
                <g id="负面事件备份" transform="translate(0.000000, 335.000000)">
                    <rect id="矩形" fill="#000000" opacity="0" x="0" y="0" width="22" height="22"></rect>
                    <path d="M11.4177517,7.33333333 C14.3482205,7.33333333 16.7243924,9.70950521 16.7243924,12.639974 L16.7243924,16.7864583 L9.09743924,16.7864583 L9.09743924,13.1126302 C9.09743924,12.9944661 9.00075955,12.8977865 8.88259549,12.8977865 L7.93728299,12.8977865 C7.81911892,12.8977865 7.72243924,12.9944661 7.72243924,13.1126302 L7.72243924,16.7864583 L6.11111111,16.7864583 L6.11111111,12.639974 C6.11111111,9.70950521 8.48728299,7.33333333 11.4177517,7.33333333 Z" id="形状结合" fill="#FFB21C"></path>
                    <path d="M4.65996094,6.67089844 L5.51074219,5.82011719 C5.57734375,5.75351562 5.57734375,5.64394531 5.51074219,5.57734375 L4.05195312,4.11855469 C3.98535156,4.05195312 3.87578125,4.05195312 3.80917969,4.11855469 L2.95839844,4.96933594 C2.89179687,5.0359375 2.89179687,5.14550781 2.95839844,5.21210937 L4.4171875,6.67089844 C4.48378906,6.7375 4.59121094,6.7375 4.65996094,6.67089844 Z" id="路径" fill="#FFB21C"></path>
                    <path d="M19.0458984,4.96933594 L18.1951172,4.11855469 C18.1285156,4.05195312 18.0189453,4.05195312 17.9523438,4.11855469 L16.4935547,5.57734375 C16.4269531,5.64394531 16.4269531,5.75351562 16.4935547,5.82011719 L17.3443359,6.67089844 C17.4109375,6.7375 17.5205078,6.7375 17.5871094,6.67089844 L19.0458984,5.21210938 C19.1125,5.14335938 19.1125,5.0359375 19.0458984,4.96933594 L19.0458984,4.96933594 Z" id="路径" fill="#FFB21C"></path>
                    <path d="M16.2377778,18.3333333 L6.59333333,18.3333333 C6.32660417,18.3333333 6.11111111,18.6405599 6.11111111,19.0208333 L6.11111111,19.5364583 C6.11111111,19.6309896 6.16536111,19.7083333 6.23166667,19.7083333 L16.5994444,19.7083333 C16.66575,19.7083333 16.72,19.6309896 16.72,19.5364583 L16.72,19.0208333 C16.72,18.6405599 16.5045069,18.3333333 16.2377778,18.3333333 Z" id="路径" fill="#FFB21C"></path>
                    <path d="M10.3984375,3.8671875 L11.6015625,3.8671875 C11.6960937,3.8671875 11.7734375,3.78984375 11.7734375,3.6953125 L11.7734375,1.6328125 C11.7734375,1.53828125 11.6960937,1.4609375 11.6015625,1.4609375 L10.3984375,1.4609375 C10.3039063,1.4609375 10.2265625,1.53828125 10.2265625,1.6328125 L10.2265625,3.6953125 C10.2265625,3.78984375 10.3039063,3.8671875 10.3984375,3.8671875 Z" id="路径" fill="#FFB21C"></path>
                </g>
            </g>
        </g>
    </g>
</svg>