<?xml version="1.0" encoding="UTF-8"?>
<svg width="7px" height="13px" viewBox="0 0 7 13" version="1.1" xmlns="http://www.w3.org/2000/svg" xmlns:xlink="http://www.w3.org/1999/xlink">
    <title>形状结合备份</title>
    <g id="页面-1" stroke="none" stroke-width="1" fill="none" fill-rule="evenodd">
        <g id="3.1景气图谱" transform="translate(-1216.000000, -349.000000)" fill="#EA444E">
            <g id="编组-6" transform="translate(338.000000, 224.000000)">
                <g id="编组-4备份-2" transform="translate(835.000000, 123.000000)">
                    <path d="M46.8100897,2.10649501 C46.8405614,2.13058655 46.8681218,2.15814699 46.8922134,2.18861871 L49.9061079,6.0006847 C50.0773708,6.2173033 50.0406028,6.53174341 49.8239842,6.70300635 C49.7356944,6.77280997 49.6264358,6.81078367 49.5138852,6.81078367 L47.511,6.81 L47.51164,14.5 C47.51164,14.7761424 47.2877824,15 47.01164,15 L45.9883413,15 C45.712199,15 45.4883413,14.7761424 45.4883413,14.5 L45.488,6.81 L43.4860962,6.81078367 C43.2099538,6.81078367 42.9860962,6.58692605 42.9860962,6.31078367 C42.9860962,6.19823311 43.0240699,6.08897446 43.0938735,6.0006847 L46.107768,2.18861871 C46.2790309,1.9720001 46.5934711,1.93523207 46.8100897,2.10649501 Z" id="形状结合备份"></path>
                </g>
            </g>
        </g>
    </g>
</svg>