<?xml version="1.0" encoding="UTF-8"?>
<svg width="42px" height="41px" viewBox="0 0 42 41" version="1.1" xmlns="http://www.w3.org/2000/svg" xmlns:xlink="http://www.w3.org/1999/xlink">
    <title>账户选中</title>
    <g id="页面-1" stroke="none" stroke-width="1" fill="none" fill-rule="evenodd">
        <g id="账户选中" transform="translate(0.113874, 0.500000)">
            <circle id="椭圆形" fill="#FF6D7E" cx="20" cy="20" r="20"></circle>
            <circle id="椭圆形" stroke="#FFFFFF" stroke-width="1.42857143" fill="#FF6D7E" cx="33.5714286" cy="32.1428571" r="6.42857143"></circle>
            <path d="M33.8095238,36.5493405 C33.2835383,36.5493405 32.8571429,36.122945 32.8571429,35.5969595 C32.8571429,35.070974 33.2835383,34.6445786 33.8095238,34.6445786 C34.3355093,34.6445786 34.7619048,35.070974 34.7619048,35.5969595 C34.7619048,36.122945 34.3355093,36.5493405 33.8095238,36.5493405 Z" id="路径" fill="#FFFFFF"></path>
            <path d="M34.7619048,28.6887548 L34.7619048,32.4982786 C34.7619048,33.0242641 34.3355093,33.4506595 33.8095238,33.4506595 C33.2835383,33.4506595 32.8571429,33.0242641 32.8571429,32.4982786 L32.8571429,28.6887548 C32.8571429,28.1627693 33.2835383,27.7363738 33.8095238,27.7363738 C34.3355093,27.7363738 34.7619048,28.1627693 34.7619048,28.6887548 Z" id="路径" fill="#FFFFFF"></path>
            <g id="钱" transform="translate(10.211158, 8.552149)" fill="#FFFFFF" fill-rule="nonzero">
                <path d="M7.23018276,5.17088774 L12.1995304,5.17088774 C13.737365,5.17088774 14.9103927,1.83611394 14.9103927,1.83611394 C14.9103927,0.837402301 14.8103567,0.0818265667 13.1028421,0.0286663371 C11.3959456,-0.0251120355 10.9869416,1.2222988 9.76013547,1.2222988 C8.50273135,1.2222988 7.87377172,0.241616307 6.32645896,0.0286663371 C4.77966129,-0.185416895 4.51942345,0.837505325 4.51942345,1.83611394 C4.51942345,1.83621697 5.69183302,5.17088774 7.23018276,5.17088774 L7.23018276,5.17088774 Z" id="路径"></path>
                <path d="M12.4707918,6.20174277 L7.23018276,6.20174277 C1.42675534,6.20174277 0.00152561774,17.6029623 0.00152561774,17.6029623 C0.00152561774,19.1006177 1.21524769,20.6047636 2.71228491,20.6047636 L16.9881745,20.6047636 C18.4852117,20.6047636 19.6989338,19.1006177 19.6989338,17.6029623 C19.6989338,17.6029623 18.273189,6.20174277 12.4707918,6.20174277 Z M13.0657536,14.9641136 C13.415416,14.9641136 13.6987311,15.2479438 13.6987311,15.5975032 C13.6987311,15.9470626 13.415416,16.2309959 13.0657536,16.2309959 L10.4960337,16.2309959 L10.4960337,17.892871 C10.4960337,18.2424304 10.2127186,18.5262606 9.86357127,18.5262606 C9.51392077,18.5260331 9.23059364,18.2425216 9.23059371,17.892871 L9.23059371,16.2309959 L6.64428703,16.2309959 C6.29462464,16.2309959 6.01130945,15.9470626 6.01130945,15.5975032 C6.01130945,15.2479438 6.29462462,14.9641136 6.64428703,14.9641136 L9.23059371,14.9641136 L9.23059371,14.1603227 L6.64428703,14.1603227 C6.47638472,14.1603501 6.3153529,14.0936562 6.1966377,13.9749217 C6.07792249,13.8561872 6.01130945,13.6951445 6.01130945,13.5272422 C6.01130945,13.1775798 6.29462462,12.8932344 6.64428703,12.8932344 L8.39259903,12.8932344 L6.60266547,9.71227497 C6.42787344,9.40941444 6.53153468,9.02220646 6.83426271,8.84718504 C7.1368334,8.67235211 7.52384123,8.77579093 7.6988375,9.07826718 L9.85399007,12.8932344 L9.96298913,12.8932344 L12.1181417,9.07826718 C12.2020617,8.93302298 12.3402525,8.82707364 12.5023026,8.78373533 C12.6643527,8.74039702 12.8369825,8.76322122 12.9822014,8.84718504 C13.1277501,8.93107494 13.2339953,9.06936689 13.277548,9.23161704 C13.3211007,9.3938672 13.2983904,9.56677456 13.2144168,9.71227497 L11.4243802,12.8932344 L13.0657536,12.8932344 C13.415416,12.8932344 13.6988341,13.1775798 13.6988341,13.5272422 C13.6988341,13.8768829 13.4153943,14.1603227 13.0657536,14.1603227 L10.4960337,14.1603227 L10.4960337,14.9641136 L13.0657536,14.9641136 L13.0657536,14.9641136 Z" id="形状"></path>
            </g>
        </g>
    </g>
</svg>