<?xml version="1.0" encoding="UTF-8"?>
<svg width="41px" height="41px" viewBox="0 0 41 41" version="1.1" xmlns="http://www.w3.org/2000/svg" xmlns:xlink="http://www.w3.org/1999/xlink">
    <title>黑名单</title>
    <defs>
        <circle id="path-1" cx="6.70177021" cy="6.7383309" r="6.42857143"></circle>
    </defs>
    <g id="页面-1" stroke="none" stroke-width="1" fill="none" fill-rule="evenodd">
        <g id="黑名单" transform="translate(0.113874, 0.500000)">
            <circle id="椭圆形" fill="#848484" cx="20" cy="20" r="20"></circle>
            <path d="M28.9302024,24.7004096 C27.5497945,24.0833286 25.5014026,22.4937687 22.4684317,21.9475633 C23.2441017,21.1127048 23.8311268,19.8070357 24.4349899,18.2603364 C24.7849453,17.3639326 24.7249793,16.5997795 24.7249793,15.5117907 C24.7249793,14.708203 24.8754531,13.4184243 24.6771135,12.7095964 C24.0081333,10.3141162 22.3178364,9.65322707 20.3373557,9.65322707 C18.3552471,9.65322707 16.6628849,10.3172263 15.9951682,12.7168127 C15.7984322,13.4234539 15.9492947,14.7102682 15.9492947,15.5119122 C15.9492947,16.6022578 15.8904464,17.3690107 16.2413251,18.2668238 C16.8498291,19.8214683 17.4283501,21.1252665 18.2010315,21.9566262 C15.1923823,22.5127936 13.1593706,24.0904721 11.7877341,24.7055849 C8.94945812,25.9784283 8.93553571,27.3719082 8.93553571,27.3719082 L8.93553571,29.7389604 L31.7926786,29.7362391 L31.7926786,27.3719082 C31.7926786,27.3719082 31.7793879,25.9736417 28.9302267,24.7004096 L28.9302024,24.7004096 Z" id="路径" fill="#FFFFFF" fill-rule="nonzero"></path>
            <g id="编组-48备份" transform="translate(25.714286, 25.209209)">
                <mask id="mask-2" fill="white">
                    <use xlink:href="#path-1"></use>
                </mask>
                <use id="椭圆形" stroke="#FFFFFF" stroke-width="1.42857143" fill="#848484" xlink:href="#path-1"></use>
                <line x1="3.15426643" y1="6.82718235" x2="10.1796979" y2="6.82718235" id="直线-3" stroke="#FFFFFF" stroke-width="1.42857143" stroke-linecap="round" stroke-linejoin="round" mask="url(#mask-2)"></line>
            </g>
        </g>
    </g>
</svg>