<?xml version="1.0" encoding="UTF-8"?>
<svg width="40px" height="41px" viewBox="0 0 40 41" version="1.1" xmlns="http://www.w3.org/2000/svg" xmlns:xlink="http://www.w3.org/1999/xlink">
    <title>逾期</title>
    <g id="页面-1" stroke="none" stroke-width="1" fill="none" fill-rule="evenodd">
        <g id="逾期" transform="translate(0.000000, 0.500000)">
            <g id="编组-47备份" fill="#35D6A6">
                <circle id="椭圆形" cx="20" cy="20" r="20"></circle>
            </g>
            <path d="M28.5660953,24.7004096 C27.1856874,24.0833286 25.1372955,22.4937687 22.1043245,21.9475633 C22.8799946,21.1127048 23.4670196,19.8070357 24.0708828,18.2603364 C24.4208382,17.3639326 24.3608722,16.5997795 24.3608722,15.5117907 C24.3608722,14.708203 24.511346,13.4184243 24.3130063,12.7095964 C23.6440262,10.3141162 21.9537293,9.65322707 19.9732486,9.65322707 C17.99114,9.65322707 16.2987778,10.3172263 15.6310611,12.7168127 C15.4343251,13.4234539 15.5851876,14.7102682 15.5851876,15.5119122 C15.5851876,16.6022578 15.5263393,17.3690107 15.877218,18.2668238 C16.4857219,19.8214683 17.0642429,21.1252665 17.8369244,21.9566262 C14.8282751,22.5127936 12.7952635,24.0904721 11.4236269,24.7055849 C8.58535098,25.9784283 8.57142857,27.3719082 8.57142857,27.3719082 L8.57142857,29.7389604 L31.4285714,29.7362391 L31.4285714,27.3719082 C31.4285714,27.3719082 31.4152808,25.9736417 28.5661196,24.7004096 L28.5660953,24.7004096 Z" id="路径备份" fill="#FFFFFF" fill-rule="nonzero"></path>
            <g id="编组-51" transform="translate(24.285714, 25.714286)" stroke="#FFFFFF" stroke-width="1.42857143">
                <g id="编组-48" fill="#77D7BB">
                    <circle id="椭圆形" cx="6.42857143" cy="6.42857143" r="6.42857143"></circle>
                </g>
                <polyline id="路径-17" stroke-linecap="round" stroke-linejoin="round" points="3.81370798 9.26774569 6.8081983 7.30819518 6.8081983 2.80653671"></polyline>
            </g>
        </g>
    </g>
</svg>