<?xml version="1.0" encoding="UTF-8"?>
<svg width="40px" height="41px" viewBox="0 0 40 41" version="1.1" xmlns="http://www.w3.org/2000/svg" xmlns:xlink="http://www.w3.org/1999/xlink">
    <title>全部</title>
    <g id="页面-1" stroke="none" stroke-width="1" fill="none" fill-rule="evenodd">
        <g id="全部" transform="translate(0.000000, 0.500000)">
            <circle id="椭圆形" fill="#4A84FF" cx="20" cy="20" r="20"></circle>
            <path d="M28.5714286,21.4285714 C29.3604068,21.4285714 30,22.0681646 30,22.8571429 L30,28.5714286 C30,29.3604068 29.3604068,30 28.5714286,30 L22.8571429,30 C22.0681646,30 21.4285714,29.3604068 21.4285714,28.5714286 L21.4285714,22.8571429 C21.4285714,22.0681646 22.0681646,21.4285714 22.8571429,21.4285714 L28.5714286,21.4285714 Z M17.1428571,21.4285714 C17.9318354,21.4285714 18.5714286,22.0681646 18.5714286,22.8571429 L18.5714286,28.5714286 C18.5714286,29.3604068 17.9318354,30 17.1428571,30 L11.4285714,30 C10.6395932,30 10,29.3604068 10,28.5714286 L10,22.8571429 C10,22.0681646 10.6395932,21.4285714 11.4285714,21.4285714 L17.1428571,21.4285714 Z M14.2857143,10 C16.6526489,10 18.5714286,11.9187796 18.5714286,14.2857143 C18.5714286,16.6526489 16.6526489,18.5714286 14.2857143,18.5714286 C11.9187796,18.5714286 10,16.6526489 10,14.2857143 C10,11.9187796 11.9187796,10 14.2857143,10 Z M28.5714286,10 C29.3604068,10 30,10.6395932 30,11.4285714 L30,17.1428571 C30,17.9318354 29.3604068,18.5714286 28.5714286,18.5714286 L22.8571429,18.5714286 C22.0681646,18.5714286 21.4285714,17.9318354 21.4285714,17.1428571 L21.4285714,11.4285714 C21.4285714,10.6395932 22.0681646,10 22.8571429,10 L28.5714286,10 Z" id="形状结合" fill="#FFFFFF"></path>
        </g>
    </g>
</svg>