<?xml version="1.0" encoding="UTF-8"?>
<svg width="7px" height="13px" viewBox="0 0 7 13" version="1.1" xmlns="http://www.w3.org/2000/svg" xmlns:xlink="http://www.w3.org/1999/xlink">
    <title>形状结合备份 2</title>
    <g id="页面-1" stroke="none" stroke-width="1" fill="none" fill-rule="evenodd">
        <g id="3.1景气图谱" transform="translate(-1222.000000, -291.000000)" fill="#08A24C">
            <g id="编组-6" transform="translate(338.000000, 224.000000)">
                <g id="编组-5" transform="translate(835.000000, 65.000000)">
                    <path d="M52.8100897,2.10649501 C52.8405614,2.13058655 52.8681218,2.15814699 52.8922134,2.18861871 L55.9061079,6.0006847 C56.0773708,6.2173033 56.0406028,6.53174341 55.8239842,6.70300635 C55.7356944,6.77280997 55.6264358,6.81078367 55.5138852,6.81078367 L53.511,6.81 L53.51164,14.5 C53.51164,14.7761424 53.2877824,15 53.01164,15 L51.9883413,15 C51.712199,15 51.4883413,14.7761424 51.4883413,14.5 L51.488,6.81 L49.4860962,6.81078367 C49.2099538,6.81078367 48.9860962,6.58692605 48.9860962,6.31078367 C48.9860962,6.19823311 49.0240699,6.08897446 49.0938735,6.0006847 L52.107768,2.18861871 C52.2790309,1.9720001 52.5934711,1.93523207 52.8100897,2.10649501 Z" id="形状结合备份-2" transform="translate(52.500000, 8.500000) rotate(-180.000000) translate(-52.500000, -8.500000) "></path>
                </g>
            </g>
        </g>
    </g>
</svg>