<?xml version="1.0" encoding="UTF-8"?>
<svg width="30px" height="30px" viewBox="0 0 30 30" version="1.1" xmlns="http://www.w3.org/2000/svg" xmlns:xlink="http://www.w3.org/1999/xlink">
    <title>出差备份 3</title>
    <g id="页面-1" stroke="none" stroke-width="1" fill="none" fill-rule="evenodd">
        <g id="1.2行业前景" transform="translate(-1360.000000, -146.000000)">
            <g id="出差备份-3" transform="translate(1360.000000, 146.000000)">
                <path d="M2.5,-2.13162821e-15 L27.5,-2.13162821e-15 C29.1666667,-2.13162821e-15 30,0.83333333 30,2.5 L30,27.5 C30,29.1666667 29.1666667,30 27.5,30 L2.5,30 C0.83333333,30 -2.13162821e-15,29.1666667 -2.13162821e-15,27.5 L-2.13162821e-15,2.5 C-2.13162821e-15,0.83333333 0.83333333,-2.13162821e-15 2.5,-2.13162821e-15 Z" id="路径" fill="#795FE9" fill-rule="nonzero"></path>
                <g id="编组" transform="translate(8.000000, 7.537958)">
                    <path d="M0.813919911,2.30789523 L11.8139199,0.224629131 C12.3565588,0.121859935 12.8797654,0.478444757 12.9825346,1.02108362 C12.9941527,1.08242907 13,1.14472779 13,1.20716371 L13,11.1716119 C13,11.6521403 12.6582158,12.0647298 12.1860801,12.1541465 L1.18608009,14.2374126 C0.643441225,14.3401818 0.120234616,13.983597 0.0174654203,13.4409581 C0.00584733843,13.3796127 -6.58373793e-16,13.317314 0,13.254878 L0,3.29042981 C-5.020059e-17,2.80990148 0.341784209,2.39731199 0.813919911,2.30789523 Z" id="矩形" fill="#D4CDF2"></path>
                    <rect id="矩形" fill="#FFFFFF" x="0" y="2.46204175" width="15" height="12" rx="1"></rect>
                    <path d="M9,6.96204175 L15,6.96204175 L15,6.96204175 L15,9.96204175 L9,9.96204175 C8.44771525,9.96204175 8,9.5143265 8,8.96204175 L8,7.96204175 C8,7.409757 8.44771525,6.96204175 9,6.96204175 Z" id="矩形" fill="#D4CDF2"></path>
                    <circle id="椭圆形" fill="#795FE9" cx="10" cy="8.46204175" r="1"></circle>
                </g>
            </g>
        </g>
    </g>
</svg>