<?xml version="1.0" encoding="UTF-8"?>
<svg width="30px" height="30px" viewBox="0 0 30 30" version="1.1" xmlns="http://www.w3.org/2000/svg" xmlns:xlink="http://www.w3.org/1999/xlink">
    <title>出差备份 2</title>
    <g id="页面-1" stroke="none" stroke-width="1" fill="none" fill-rule="evenodd">
        <g id="1.2行业前景" transform="translate(-1065.000000, -146.000000)">
            <g id="出差备份-2" transform="translate(1065.000000, 146.000000)">
                <path d="M2.5,-2.13162821e-15 L27.5,-2.13162821e-15 C29.1666667,-2.13162821e-15 30,0.83333333 30,2.5 L30,27.5 C30,29.1666667 29.1666667,30 27.5,30 L2.5,30 C0.83333333,30 -2.13162821e-15,29.1666667 -2.13162821e-15,27.5 L-2.13162821e-15,2.5 C-2.13162821e-15,0.83333333 0.83333333,-2.13162821e-15 2.5,-2.13162821e-15 Z" id="路径" fill="#FF8040" fill-rule="nonzero"></path>
                <g id="编组-9" transform="translate(8.000000, 8.000000)" stroke="#FFFFFF">
                    <circle id="椭圆形" stroke-opacity="0.6" stroke-width="2" fill="#FF8040" cx="2.5" cy="2.5" r="2.5"></circle>
                    <circle id="椭圆形备份" stroke-opacity="0.6" stroke-width="2" fill="#FF8040" cx="11.5" cy="11.5" r="2.5"></circle>
                    <line x1="1" y1="13" x2="13" y2="1" id="路径-13" stroke-width="1.5" stroke-linecap="round"></line>
                </g>
            </g>
        </g>
    </g>
</svg>