<?xml version="1.0" encoding="UTF-8"?>
<svg width="30px" height="30px" viewBox="0 0 30 30" version="1.1" xmlns="http://www.w3.org/2000/svg" xmlns:xlink="http://www.w3.org/1999/xlink">
    <title>出差</title>
    <g id="页面-1" stroke="none" stroke-width="1" fill="none" fill-rule="evenodd">
        <g id="1.2行业前景" transform="translate(-464.000000, -146.000000)" fill-rule="nonzero">
            <g id="出差" transform="translate(464.000000, 146.000000)">
                <path d="M2.5,-2.13162821e-15 L27.5,-2.13162821e-15 C29.1666667,-2.13162821e-15 30,0.83333333 30,2.5 L30,27.5 C30,29.1666667 29.1666667,30 27.5,30 L2.5,30 C0.83333333,30 -2.13162821e-15,29.1666667 -2.13162821e-15,27.5 L-2.13162821e-15,2.5 C-2.13162821e-15,0.83333333 0.83333333,-2.13162821e-15 2.5,-2.13162821e-15 Z" id="路径" fill="#4070FF"></path>
                <g id="企业" transform="translate(7.000000, 7.000000)">
                    <path d="M15.1923077,15.9912318 L9.875,15.9912318 C9.47115385,16.0597033 9.06730769,15.717346 9,15.2380457 L9,4.7619106 C9.06730769,4.28261031 9.47115385,3.94025296 9.94230769,4.00872443 C10.0096154,4.00872443 10.0769231,4.00872443 10.1442308,4.0771959 L15.4615385,5.92592562 C15.7980769,5.99439709 16,6.26828297 16,6.61064032 L16,15.3065171 C16,15.717346 15.6634615,16.0597033 15.1923077,15.9912318 Z" id="路径" fill="#9FB7FF"></path>
                    <path d="M0.857142852,15.9921966 L10.0714286,15.9921966 C10.5,16.0534395 10.9285714,15.7472251 11,15.3185249 L11,0.681475136 C10.9285714,0.252774935 10.5,-0.0534394902 10,0.00780338139 C9.92857143,0.00780338139 9.85714285,0.00780338139 9.78571428,0.0690462697 L0.571428574,2.70249037 C0.214285723,2.76373326 0,3.00870479 0,3.31491922 L0,15.3185249 C0,15.7472251 0.357142852,16.0534395 0.857142852,15.9921966 Z" id="路径" fill="#FFFFFF"></path>
                    <path d="M14.5151515,13 L11.6666667,13 C11.4242424,13 11.1818182,12.8057554 11.1818182,12.4820144 C11.1818182,12.2230216 11.3636364,11.9640288 11.6666667,11.9640288 L14.5151515,11.9640288 C14.7575757,11.9640288 15,12.1582734 15,12.4820144 C15,12.8057554 14.7575758,13 14.5151515,13 Z M8.15151515,5.29496403 L3.6060606,5.29496403 C3.24242424,5.29496403 3,4.97122302 3,4.647482 C3,4.2589928 3.3030303,4 3.6060606,4 L8.15151515,4 C8.51515151,4 8.75757576,4.323741 8.75757575,4.647482 C8.81818181,4.97122301 8.51515151,5.29496403 8.15151515,5.29496403 L8.15151515,5.29496403 Z M8.15151515,8.5323741 L3.6060606,8.5323741 C3.24242424,8.5323741 3,8.2086331 3,7.88489208 C3,7.49640287 3.3030303,7.23741006 3.6060606,7.23741006 L8.15151515,7.23741006 C8.51515151,7.23741006 8.75757576,7.56115106 8.75757575,7.88489208 C8.81818181,8.27338129 8.51515151,8.5323741 8.15151515,8.5323741 L8.15151515,8.5323741 Z M8.15151515,11.8345324 L3.6060606,11.8345324 C3.24242424,11.8345324 3,11.5107914 3,11.1870504 C3,10.7985612 3.3030303,10.5395683 3.6060606,10.5395683 L8.15151515,10.5395683 C8.51515151,10.5395683 8.75757576,10.8633093 8.75757575,11.1870504 C8.81818181,11.5107914 8.51515151,11.8345324 8.15151515,11.8345324 L8.15151515,11.8345324 Z" id="形状" fill="#4070FF"></path>
                </g>
            </g>
        </g>
    </g>
</svg>