<?xml version="1.0" encoding="UTF-8"?>
<svg width="30px" height="30px" viewBox="0 0 30 30" version="1.1" xmlns="http://www.w3.org/2000/svg" xmlns:xlink="http://www.w3.org/1999/xlink">
    <title>出差备份</title>
    <g id="页面-1" stroke="none" stroke-width="1" fill="none" fill-rule="evenodd">
        <g id="1.2行业前景" transform="translate(-770.000000, -146.000000)" fill-rule="nonzero">
            <g id="出差备份" transform="translate(770.000000, 146.000000)">
                <path d="M2.5,-2.13162821e-15 L27.5,-2.13162821e-15 C29.1666667,-2.13162821e-15 30,0.83333333 30,2.5 L30,27.5 C30,29.1666667 29.1666667,30 27.5,30 L2.5,30 C0.83333333,30 -2.13162821e-15,29.1666667 -2.13162821e-15,27.5 L-2.13162821e-15,2.5 C-2.13162821e-15,0.83333333 0.83333333,-2.13162821e-15 2.5,-2.13162821e-15 Z" id="路径" fill="#41CC8B"></path>
                <path d="M22.5,15 L22.5,20.9375 C22.5,21.455267 22.080267,21.875 21.5625,21.875 L8.4375,21.875 C7.91973305,21.875 7.5,21.455267 7.5,20.9375 L7.5,15 L22.5,15 Z M7.5,10.9375 C7.5,10.419733 7.91973305,9.99999999 8.4375,9.99999999 L21.5625,9.99999999 C22.080267,9.99999999 22.5,10.419733 22.5,10.9375 L22.5,13.75 L7.5,13.75 L7.5,10.9375 Z" id="形状" fill="#FFFFFF"></path>
                <path d="M10.625,12.5 L11.875,12.5 C12.0833333,12.5 12.1875,12.6041667 12.1875,12.8125 L12.1875,15.9375 C12.1875,16.1458333 12.0833333,16.25 11.875,16.25 L10.625,16.25 C10.4166667,16.25 10.3125,16.1458333 10.3125,15.9375 L10.3125,12.8125 C10.3125,12.6041667 10.4166667,12.5 10.625,12.5 L10.625,12.5 Z" id="路径" fill="#A0E5C5"></path>
                <path d="M18.125,12.5 L19.375,12.5 C19.5833333,12.5 19.6875,12.6041667 19.6875,12.8125 L19.6875,15.9375 C19.6875,16.1458333 19.5833333,16.25 19.375,16.25 L18.125,16.25 C17.9166667,16.25 17.8125,16.1458333 17.8125,15.9375 L17.8125,12.8125 C17.8125,12.6041667 17.9166667,12.5 18.125,12.5 L18.125,12.5 Z" id="路径" fill="#A0E5C5"></path>
                <path d="M12.8125,8.12499999 L17.1875,8.12499999 C17.3532603,8.12499999 17.5122315,8.19084802 17.6294418,8.30805826 C17.746652,8.4252685 17.8125,8.5842397 17.8125,8.75000001 L17.8125,9.99999999 L12.1875,9.99999999 L12.1875,8.75000001 C12.1875,8.5842397 12.253348,8.4252685 12.3705582,8.30805826 C12.4877685,8.19084802 12.6467397,8.12499999 12.8125,8.12499999 Z" id="路径" fill="#A0E5C5"></path>
            </g>
        </g>
    </g>
</svg>