<?xml version="1.0" encoding="UTF-8"?>
<svg width="14px" height="14px" viewBox="0 0 14 14" version="1.1" xmlns="http://www.w3.org/2000/svg" xmlns:xlink="http://www.w3.org/1999/xlink">
    <!-- Generator: Sketch 61 (89581) - https://sketch.com -->
    <title>搜索</title>
    <desc>Created with Sketch.</desc>
    <g id="改版" stroke="none" stroke-width="1" fill="none" fill-rule="evenodd">
        <g id="产品分类维护1" transform="translate(-304.000000, -191.000000)" fill-rule="nonzero">
            <g id="Group-8-Copy" transform="translate(60.000000, 183.000000)">
                <g id="button-search" transform="translate(244.000000, 8.000000)">
                    <g id="搜索">
                        <rect id="矩形" fill="#000000" opacity="0" x="0" y="0" width="14" height="14"></rect>
                        <path d="M8.6160077,9.69300366 C6.35527229,11.3885552 3.16844579,11.048118 1.31689857,8.91326616 C-0.534648644,6.77841429 -0.420978937,3.57547191 1.57724773,1.57724525 C3.5754744,-0.420981422 6.77841677,-0.534651129 8.91326865,1.31689609 C11.0481205,3.16844331 11.3885577,6.35526981 9.69300615,8.61600521 L14.0000025,12.922999 L12.9230015,14 L8.6160077,9.69300366 Z M5.38501231,9.69300366 C7.76425161,9.69300366 9.69300616,7.76424912 9.69300616,5.38500982 C9.69300616,3.00577051 7.76425161,1.07701597 5.38501231,1.07701597 C3.03163803,1.11287395 1.14265104,3.03086238 1.14265104,5.38450982 C1.14265104,7.73815727 3.03163803,9.6561457 5.38501231,9.69200368 L5.38501231,9.69300366 Z" id="形状" fill="#999999"></path>
                    </g>
                </g>
            </g>
        </g>
    </g>
</svg>