<?xml version="1.0" encoding="UTF-8"?>
<svg width="20px" height="20px" viewBox="0 0 20 20" version="1.1" xmlns="http://www.w3.org/2000/svg" xmlns:xlink="http://www.w3.org/1999/xlink">
    <title>全行客户icon</title>
    <g id="控件" stroke="none" stroke-width="1" fill="none" fill-rule="evenodd">
        <g id="左侧导航栏" transform="translate(-120.000000, -778.000000)">
            <g id="编组-83" transform="translate(16.000000, 778.000000)">
                <g id="编组-34" transform="translate(104.000000, 0.000000)">
                    <rect id="矩形备份" fill="#41CC8B" x="0" y="0" width="20" height="20" rx="1.71428571"></rect>
                    <path d="M10.3166071,11.0696429 L14.6564286,11.85875 C15.3515176,11.9850765 15.8826035,12.5505101 15.9651786,13.2521429 L16.2914286,16.0266071 C16.3093279,16.1785417 16.2614159,16.3308802 16.1597717,16.4452172 C16.0581275,16.5595541 15.9124495,16.625 15.7594643,16.625 L11.2723214,16.625 L10.3200893,13.3879464 L10.8938393,12.9580357 L10.8973214,12.9553571 C10.9250716,12.9331632 10.9428644,12.9008511 10.946783,12.8655342 C10.9507015,12.8302173 10.9404244,12.7947907 10.9182143,12.7670536 L10.0375,11.6664286 C10.0120808,11.6347449 9.97365578,11.6163097 9.93303571,11.6163097 C9.89241563,11.6163097 9.85399063,11.6347449 9.82857142,11.6664286 L8.94785713,12.7673214 L8.94517858,12.7705357 C8.92386653,12.7989518 8.91471561,12.8346701 8.9197389,12.8698332 C8.92476219,12.9049963 8.94354822,12.9367237 8.97196428,12.9580357 L9.54544644,13.3879464 L8.59401787,16.625 L4.10714285,16.625 C3.9541576,16.625 3.80847965,16.5595541 3.70683543,16.4452172 C3.60519122,16.3308802 3.55727928,16.1785417 3.57517856,16.0266071 L3.90142856,13.2521429 C3.98400364,12.5505101 4.51508955,11.9850765 5.21017858,11.85875 L9.55,11.0696429 C9.8034583,11.0235623 10.0631488,11.0235623 10.3166071,11.0696429 L10.3166071,11.0696429 Z" id="路径" fill="#FFFFFF" fill-rule="nonzero"></path>
                    <path d="M10,3.23214285 L10,3.23214285 C11.9642857,3.23214285 12.9464286,4.21428571 12.9464286,6.17857144 L12.9464286,7.24999999 C12.9464286,9.2142857 11.9642857,10.1964286 10,10.1964286 L10,10.1964286 C8.03571429,10.1964286 7.05357144,9.21428572 7.05357144,7.24999999 L7.05357144,6.17857144 C7.05357144,4.21428573 8.03571429,3.23214285 10,3.23214285 L10,3.23214285 Z" id="路径" fill="#FFFFFF" fill-rule="nonzero"></path>
                    <path d="M13,6.24999942 L13,6.9279991 C12.6475366,7.04708059 12.2794298,7.10752894 11.9090909,7.10714372 C10.6732315,7.10778691 9.5263448,6.4337907 8.88263637,5.32857128 C8.41675936,5.91324795 7.72699186,6.25084431 7,6.24999942 C7,4.51428594 7.93107456,3.10714372 10,3.10714372 C12.0889025,3.10714372 13,4.51428592 13,6.24999942 Z" id="路径" fill="#A0E5C5" fill-rule="nonzero"></path>
                </g>
            </g>
        </g>
    </g>
</svg>