<?xml version="1.0" encoding="UTF-8"?>
<svg width="16px" height="16px" viewBox="0 0 16 16" version="1.1" xmlns="http://www.w3.org/2000/svg" xmlns:xlink="http://www.w3.org/1999/xlink">
    <title>导航/小icon/竞争格局/选中</title>
    <g id="导航/小icon/竞争格局/选中" stroke="none" stroke-width="1" fill="none" fill-rule="evenodd">
        <g id="balance-two">
            <rect id="矩形" fill-opacity="0.01" fill="#FFFFFF" fill-rule="nonzero" x="0" y="0" width="16" height="16"></rect>
            <polyline id="路径" stroke="#3A84FF" stroke-linecap="round" stroke-linejoin="round" points="5.33333333 7.33333333 3.33333333 4 1.33333333 7.33333333"></polyline>
            <path d="M3.33333333,9.33333333 C4.4379,9.33333333 5.33333333,8.4379 5.33333333,7.33333333 L1.33333333,7.33333333 C1.33333333,8.4379 2.22876333,9.33333333 3.33333333,9.33333333 Z" id="路径" stroke="#3A84FF" stroke-linecap="round" stroke-linejoin="round"></path>
            <polyline id="路径" stroke="#3A84FF" stroke-linecap="round" stroke-linejoin="round" points="14.6666667 7.33333333 12.6666667 4 10.6666667 7.33333333"></polyline>
            <path d="M12.6666667,9.33333333 C13.7712333,9.33333333 14.6666667,8.4379 14.6666667,7.33333333 L10.6666667,7.33333333 C10.6666667,8.4379 11.5621,9.33333333 12.6666667,9.33333333 Z" id="路径" stroke="#3A84FF" stroke-linecap="round" stroke-linejoin="round"></path>
            <line x1="8" y1="2" x2="8" y2="14" id="路径" stroke="#3A84FF" stroke-linecap="round" stroke-linejoin="round"></line>
            <polyline id="路径" stroke="#3A84FF" stroke-linecap="round" stroke-linejoin="round" points="3.33333333 4 8 4 12.6666667 4"></polyline>
            <polyline id="路径" stroke="#3A84FF" stroke-linecap="round" stroke-linejoin="round" points="3.33333333 4 8 4 12.6666667 4"></polyline>
            <polyline id="路径" stroke="#3A84FF" stroke-linecap="round" stroke-linejoin="round" points="12.6666667 14 8 14 3.33333333 14"></polyline>
        </g>
    </g>
</svg>