<?xml version="1.0" encoding="UTF-8"?>
<svg width="30px" height="30px" viewBox="0 0 30 30" version="1.1" xmlns="http://www.w3.org/2000/svg" xmlns:xlink="http://www.w3.org/1999/xlink">
    <title>导航/大icon/存量客户</title>
    <defs>
        <linearGradient x1="28.6503152%" y1="0%" x2="28.6503152%" y2="100%" id="linearGradient-1">
            <stop stop-color="#70EFC9" offset="0%"></stop>
            <stop stop-color="#79E1E6" offset="100%"></stop>
        </linearGradient>
        <linearGradient x1="50%" y1="0%" x2="50%" y2="100%" id="linearGradient-2">
            <stop stop-color="#FFFFFF" offset="0%"></stop>
            <stop stop-color="#FFFFFF" stop-opacity="0.9" offset="100%"></stop>
        </linearGradient>
        <linearGradient x1="17.7301273%" y1="0%" x2="82.2698727%" y2="100%" id="linearGradient-3">
            <stop stop-color="#0097E0" offset="0%"></stop>
            <stop stop-color="#0060B0" offset="100%"></stop>
        </linearGradient>
    </defs>
    <g id="导航/大icon/存量客户" stroke="none" stroke-width="1" fill="none" fill-rule="evenodd">
        <g id="编组-25备份-3">
            <rect id="矩形备份-6" fill="#D8D8D8" opacity="0" x="0" y="0" width="30" height="30"></rect>
            <g id="编组-24" transform="translate(1.432432, 3.675676)">
                <g id="编组-11" transform="translate(12.162162, 0.000000)">
                    <path d="M13.5945946,0.324324324 C14.042393,0.324324324 14.4054054,0.687336689 14.4054054,1.13513514 L14.4054054,13.5135135 C14.4054054,13.961312 14.042393,14.3243243 13.5945946,14.3243243 L11.4054054,14.3243243 L11.4054054,17.3455891 C11.4054054,17.4262292 11.3813798,17.5043923 11.3372925,17.5705082 L11.2866649,17.632254 C11.1283443,17.7905747 10.8716557,17.7905747 10.7133351,17.632254 L10.7133351,17.632254 L7.40540541,14.3243243 L1.21621622,14.3243243 C0.76841777,14.3243243 0.405405405,13.961312 0.405405405,13.5135135 L0.405405405,1.13513514 C0.405405405,0.687336689 0.76841777,0.324324324 1.21621622,0.324324324 L13.5945946,0.324324324 Z" id="形状结合备份" fill="url(#linearGradient-1)" transform="translate(7.405405, 9.037659) scale(-1, 1) translate(-7.405405, -9.037659) "></path>
                    <g id="编组备份" transform="translate(3.405405, 3.324324)" fill-rule="nonzero">
                        <path d="M3.9298869,4.65612096 L6.45838615,5.17936229 C6.86336413,5.26312687 7.17278937,5.63805473 7.22089988,6.10329351 L7.4109821,7.94298587 C7.42141071,8.04373065 7.3934959,8.14474333 7.33427519,8.2205579 C7.27505447,8.29637247 7.19017849,8.33976834 7.10104509,8.33976834 L4.48671232,8.33976834 L3.9319157,6.19334218 L4.26619822,5.90827689 L4.268227,5.90650078 C4.28439501,5.89178444 4.29476161,5.87035893 4.29704465,5.84694097 C4.29932769,5.823523 4.29334001,5.80003237 4.28039976,5.78164042 L3.7672714,5.05183775 C3.75246148,5.03082894 3.73007401,5.01860495 3.70640764,5.01860495 C3.68274127,5.01860495 3.6603538,5.03082894 3.64554388,5.05183775 L3.13241553,5.78181801 L3.13085493,5.78394934 C3.11843794,5.80279146 3.11310636,5.82647562 3.11603307,5.84979155 C3.11895978,5.87310749 3.12990504,5.8941453 3.14646101,5.90827689 L3.48058748,6.19334218 L2.92625904,8.33976834 L0.312082328,8.33976834 C0.222948918,8.33976834 0.13807294,8.29637247 0.0788522248,8.2205579 C0.0196315097,8.14474333 -0.00828330115,8.04373065 0.00214531294,7.94298587 L0.19222753,6.10329351 C0.24033804,5.63805473 0.549763288,5.26312687 0.954741263,5.17936229 L3.48324051,4.65612096 C3.63091228,4.62556586 3.78221513,4.62556586 3.9298869,4.65612096 L3.9298869,4.65612096 Z" id="路径" fill="url(#linearGradient-2)"></path>
                        <path d="M3.70656371,5.63358883e-14 L3.70656371,5.63358883e-14 C4.94208494,5.63358883e-14 5.55984556,0.522720524 5.55984556,1.56816157 L5.55984556,2.13840213 C5.55984556,3.18384317 4.94208494,3.70656371 3.70656371,3.70656371 L3.70656371,3.70656371 C2.47104247,3.70656371 1.85328185,3.18384318 1.85328185,2.13840213 L1.85328185,1.56816157 C1.85328185,0.522720533 2.47104247,5.63358883e-14 3.70656371,5.63358883e-14 L3.70656371,5.63358883e-14 Z" id="路径" fill="#FFFFFF"></path>
                    </g>
                </g>
                <g id="编组-14" transform="translate(0.000000, 5.675676)">
                    <path d="M13.7567568,0.648648649 C14.2045552,0.648648649 14.5675676,1.01166101 14.5675676,1.45945946 L14.5675676,13.8378378 C14.5675676,14.2856363 14.2045552,14.6486486 13.7567568,14.6486486 L11.5675676,14.6486486 L11.5675676,17.6699134 C11.5675676,17.7505536 11.5435419,17.8287166 11.4994547,17.8948325 L11.4488271,17.9565783 C11.2905064,18.114899 11.0338179,18.114899 10.8754973,17.9565783 L10.8754973,17.9565783 L7.56756757,14.6486486 L1.37837838,14.6486486 C0.930579933,14.6486486 0.567567568,14.2856363 0.567567568,13.8378378 L0.567567568,1.45945946 C0.567567568,1.01166101 0.930579933,0.648648649 1.37837838,0.648648649 L13.7567568,0.648648649 Z" id="形状结合" fill="url(#linearGradient-3)"></path>
                    <g id="编组" transform="translate(3.567568, 3.648649)" fill-rule="nonzero">
                        <path d="M3.9298869,4.65612096 L6.45838615,5.17936229 C6.86336413,5.26312687 7.17278937,5.63805473 7.22089988,6.10329351 L7.4109821,7.94298587 C7.42141071,8.04373065 7.3934959,8.14474333 7.33427519,8.2205579 C7.27505447,8.29637247 7.19017849,8.33976834 7.10104509,8.33976834 L4.48671232,8.33976834 L3.9319157,6.19334218 L4.26619822,5.90827689 L4.268227,5.90650078 C4.28439501,5.89178444 4.29476161,5.87035893 4.29704465,5.84694097 C4.29932769,5.823523 4.29334001,5.80003237 4.28039976,5.78164042 L3.7672714,5.05183775 C3.75246148,5.03082894 3.73007401,5.01860495 3.70640764,5.01860495 C3.68274127,5.01860495 3.6603538,5.03082894 3.64554388,5.05183775 L3.13241553,5.78181801 L3.13085493,5.78394934 C3.11843794,5.80279146 3.11310636,5.82647562 3.11603307,5.84979155 C3.11895978,5.87310749 3.12990504,5.8941453 3.14646101,5.90827689 L3.48058748,6.19334218 L2.92625904,8.33976834 L0.312082328,8.33976834 C0.222948918,8.33976834 0.13807294,8.29637247 0.0788522248,8.2205579 C0.0196315097,8.14474333 -0.00828330115,8.04373065 0.00214531294,7.94298587 L0.19222753,6.10329351 C0.24033804,5.63805473 0.549763288,5.26312687 0.954741263,5.17936229 L3.48324051,4.65612096 C3.63091228,4.62556586 3.78221513,4.62556586 3.9298869,4.65612096 L3.9298869,4.65612096 Z" id="路径" fill="url(#linearGradient-2)"></path>
                        <path d="M3.70656371,5.63358883e-14 L3.70656371,5.63358883e-14 C4.94208494,5.63358883e-14 5.55984556,0.522720524 5.55984556,1.56816157 L5.55984556,2.13840213 C5.55984556,3.18384317 4.94208494,3.70656371 3.70656371,3.70656371 L3.70656371,3.70656371 C2.47104247,3.70656371 1.85328185,3.18384318 1.85328185,2.13840213 L1.85328185,1.56816157 C1.85328185,0.522720533 2.47104247,5.63358883e-14 3.70656371,5.63358883e-14 L3.70656371,5.63358883e-14 Z" id="路径" fill="#FFFFFF"></path>
                    </g>
                </g>
            </g>
        </g>
    </g>
</svg>