<?xml version="1.0" encoding="UTF-8"?>
<svg width="16px" height="16px" viewBox="0 0 16 16" version="1.1" xmlns="http://www.w3.org/2000/svg" xmlns:xlink="http://www.w3.org/1999/xlink">
    <title>导航/小icon/运营能力/选中</title>
    <g id="导航/小icon/运营能力/选中" stroke="none" stroke-width="1" fill="none" fill-rule="evenodd">
        <g id="data-switching">
            <rect id="矩形" fill-opacity="0.01" fill="#FFFFFF" fill-rule="nonzero" x="0" y="0" width="16" height="16"></rect>
            <path d="M7.33333333,2.66666667 L7.33333333,6.66666667 C7.33333333,7.40303333 5.9902,8 4.33333333,8 C2.67648,8 1.33333333,7.40303333 1.33333333,6.66666667 L1.33333333,2.66666667" id="路径" stroke="#3A84FF" stroke-linecap="round" stroke-linejoin="round"></path>
            <path d="M7.33333333,4.66666667 C7.33333333,5.40303333 5.9902,6 4.33333333,6 C2.67648,6 1.33333333,5.40303333 1.33333333,4.66666667" id="路径" stroke="#3A84FF" stroke-linecap="round" stroke-linejoin="round"></path>
            <path d="M7.33333333,2.66666667 C7.33333333,3.40303333 5.9902,4 4.33333333,4 C2.67648,4 1.33333333,3.40303333 1.33333333,2.66666667 C1.33333333,1.93028667 2.67648,1.33333333 4.33333333,1.33333333 C5.9902,1.33333333 7.33333333,1.93028667 7.33333333,2.66666667 Z" id="路径" stroke="#3A84FF" stroke-linecap="round" stroke-linejoin="round"></path>
            <path d="M14.6666667,9.33333333 L14.6666667,13.3333333 C14.6666667,14.0697 13.3235333,14.6666667 11.6666667,14.6666667 C10.0098,14.6666667 8.66666667,14.0697 8.66666667,13.3333333 L8.66666667,9.33333333" id="路径" stroke="#3A84FF" stroke-linecap="round" stroke-linejoin="round"></path>
            <path d="M14.6666667,11.3333333 C14.6666667,12.0697 13.3235333,12.6666667 11.6666667,12.6666667 C10.0098,12.6666667 8.66666667,12.0697 8.66666667,11.3333333" id="路径" stroke="#3A84FF" stroke-linecap="round" stroke-linejoin="round"></path>
            <path d="M14.6666667,9.33333333 C14.6666667,10.0697 13.3235333,10.6666667 11.6666667,10.6666667 C10.0098,10.6666667 8.66666667,10.0697 8.66666667,9.33333333 C8.66666667,8.59696667 10.0098,8 11.6666667,8 C13.3235333,8 14.6666667,8.59696667 14.6666667,9.33333333 Z" id="路径" stroke="#3A84FF" stroke-linecap="round" stroke-linejoin="round"></path>
            <path d="M10.6666667,2 L12.6666667,2 C13.4030333,2 14,2.59695333 14,3.33333333 L14,5.33333333" id="路径" stroke="#3A84FF" stroke-linecap="round" stroke-linejoin="round"></path>
            <path d="M5.33333333,14 L3.33333333,14 C2.59695333,14 2,13.4030333 2,12.6666667 L2,10.6666667" id="路径" stroke="#3A84FF" stroke-linecap="round" stroke-linejoin="round"></path>
        </g>
    </g>
</svg>