<?xml version="1.0" encoding="UTF-8"?>
<svg width="16px" height="16px" viewBox="0 0 16 16" version="1.1" xmlns="http://www.w3.org/2000/svg" xmlns:xlink="http://www.w3.org/1999/xlink">
    <title>导航/小icon/行业获客/选中</title>
    <g id="导航/小icon/行业获客/选中" stroke="none" stroke-width="1" fill="none" fill-rule="evenodd">
        <g id="world">
            <rect id="矩形" fill-opacity="0.01" fill="#FFFFFF" fill-rule="nonzero" x="0" y="0" width="16" height="16"></rect>
            <path d="M8,14.6666667 C11.6819,14.6666667 14.6666667,11.6819 14.6666667,8 C14.6666667,4.3181 11.6819,1.33333333 8,1.33333333 C4.3181,1.33333333 1.33333333,4.3181 1.33333333,8 C1.33333333,11.6819 4.3181,14.6666667 8,14.6666667 Z" id="路径" stroke="#3A84FF"></path>
            <path d="M1.33333333,6.9468 C2.33828333,6.47226667 3.08155333,6.40616667 3.56313333,6.74846667 C4.28553333,7.26196667 4.3761,9.35466667 6.01916667,8.3545 C7.66223333,7.35433333 5.31556667,6.9468 5.825,5.49796667 C6.33443333,4.04913333 8.00276667,5.17456667 8.16863333,3.58756667 C8.27916667,2.52954 7.0136,2.12471 4.37186667,2.37307" id="路径" stroke="#3A84FF"></path>
            <path d="M12.0000333,2.66666667 C10.0952333,4.32953333 9.42996667,5.3337 10.0042333,5.6791 C10.8656,6.19723333 11.2311,5.46776667 12.2822333,5.6791 C13.3333667,5.89046667 13.1057667,7.31523333 12.5529,7.31523333 C12.0000333,7.31523333 9.13666667,6.9506 9.2809,8.62166667 C9.4251,10.2927 11.1474,10.5401 11.1474,11.4737 C11.1474,12.0961 10.7663333,13.0486667 10.0042333,14.3314" id="路径" stroke="#3A84FF" stroke-linecap="round"></path>
            <path d="M2.03487,10.9754667 C2.3387,10.8429333 2.56709,10.7458 2.72003667,10.684 C4.0024,10.1659333 4.95393333,10.0438 5.57456667,10.3176667 C6.67206667,10.8019667 6.25013333,11.7800333 6.5939,12.1403667 C6.93763333,12.5007 7.79603333,12.3958667 7.79603333,13.0813333 C7.79603333,13.5383333 7.64253333,14.0545667 7.33553333,14.6300333" id="路径" stroke="#3A84FF" stroke-linecap="round"></path>
        </g>
    </g>
</svg>