<?xml version="1.0" encoding="UTF-8"?>
<svg width="20px" height="20px" viewBox="0 0 20 20" version="1.1" xmlns="http://www.w3.org/2000/svg" xmlns:xlink="http://www.w3.org/1999/xlink">
    <title>支柱产业icon</title>
    <g id="控件" stroke="none" stroke-width="1" fill="none" fill-rule="evenodd">
        <g id="左侧导航栏" transform="translate(-16.000000, -778.000000)" fill-rule="nonzero">
            <g id="支柱产业icon" transform="translate(16.000000, 778.000000)">
                <rect id="矩形" fill="#4070FF" x="0" y="0" width="20" height="20" rx="1.71428571"></rect>
                <g id="编组-82" transform="translate(2.000000, 2.000000)">
                    <path d="M8,2 C11.3136364,2 14,4.68636364 14,8 C14,11.3136364 11.3136364,14 8,14 C4.68636364,14 2,11.3136364 2,8 C2,4.68636364 4.68636364,2 8,2 Z M8,3.0909091 C5.28881819,3.0909091 3.0909091,5.28881819 3.0909091,8 C3.0909091,10.7111818 5.28881819,12.9090909 8,12.9090909 C10.7111818,12.9090909 12.9090909,10.7111818 12.9090909,8 C12.9090909,5.28881819 10.7111818,3.0909091 8,3.0909091 Z" id="形状" fill="#9FB7FF"></path>
                    <path d="M8.28571429,12 C8.44350993,12 8.57142856,12.1279186 8.57142856,12.2857143 L8.57142856,15.7142857 C8.57142856,15.8720813 8.44350993,16 8.28571429,16 L7.71428571,16 C7.55649007,16 7.42857144,15.8720813 7.42857144,15.7142857 L7.42857144,12.2857143 C7.42857144,12.1279186 7.55649007,12 7.71428571,12 L8.28571429,12 L8.28571429,12 Z M15.7142857,7.42857144 C15.8720813,7.42857144 16,7.55649007 16,7.71428571 L16,8.28571429 C16,8.44350993 15.8720813,8.57142856 15.7142857,8.57142856 L12.2857143,8.57142856 C12.1279186,8.57142856 12,8.44350993 12,8.28571429 L12,7.71428571 C12,7.55649007 12.1279186,7.42857144 12.2857143,7.42857144 L15.7142857,7.42857144 Z M3.71428572,7.42857144 C3.87208136,7.42857144 4,7.55649007 4,7.71428571 L4,8.28571429 C4,8.44350993 3.87208136,8.57142856 3.71428572,8.57142856 L0.285714294,8.57142856 C0.127918657,8.57142856 -9.09494702e-13,8.44350993 -9.09494702e-13,8.28571429 L-9.09494702e-13,7.71428571 C-9.09494702e-13,7.55649007 0.127918657,7.42857144 0.285714294,7.42857144 L3.71428572,7.42857144 Z M8.28571429,0 C8.44350993,0 8.57142856,0.127918657 8.57142856,0.285714294 L8.57142856,3.71428572 C8.57142856,3.87208136 8.44350993,4 8.28571429,4 L7.71428571,4 C7.55649007,4 7.42857144,3.87208136 7.42857144,3.71428572 L7.42857144,0.285714294 C7.42857144,0.127918657 7.55649007,0 7.71428571,0 L8.28571429,0 L8.28571429,0 Z" id="形状" fill="#FFFFFF"></path>
                    <path d="M6,8 C6,9.1045695 6.8954305,10 8,10 C9.1045695,10 10,9.1045695 10,8 C10,6.8954305 9.1045695,6 8,6 C6.8954305,6 6,6.8954305 6,8 Z" id="路径" fill="#FFFFFF"></path>
                </g>
            </g>
        </g>
    </g>
</svg>